# xmcd
#
# Track frame offsets:
#	150
#	19259
#	32919
#	50605
#	69941
#	85722
#	104236
#	119490
#	136732
#	158337
#	177810
#
# Disc length: 2607 seconds
#
# Revision: 1
# Processed by: cddbd v1.5.2PL0 Copyright (c) Steve Scherf et al.
# Submitted via: audiograbber 1.83.01
#
DISCID=8b0a2d0b
DTITLE=Albert Cummings - Believe
DYEAR=2020
DGENRE=Blues
TTITLE0=Hold On
TTITLE1=Do What Mama Says
TTITLE2=Red Rooster
TTITLE3=Queen Of Mean
TTITLE4=Crazy Love
TTITLE5=Get Out Of Here
TTITLE6=My Babe
TTITLE7=It's All Good
TTITLE8=Going My Way
TTITLE9=Call Me Crazy
TTITLE10=Me And My Guitar
EXTD=
EXTT0=
EXTT1=
EXTT2=
EXTT3=
EXTT4=
EXTT5=
EXTT6=
EXTT7=
EXTT8=
EXTT9=
EXTT10=
PLAYORDER=
